<svg width="256" height="256" viewBox="0 0 256 256" fill="none" xmlns="http://www.w3.org/2000/svg"><path fill-rule="evenodd" clip-rule="evenodd" d="M256 79.7288C256 76.6897 256.001 73.6504 255.983 70.611C255.967 68.0507 255.938 65.491 255.868 62.932C255.718 57.3544 255.389 51.7289 254.397 46.2134C253.391 40.6184 251.748 35.4111 249.159 30.3275C246.614 25.3309 243.29 20.7586 239.323 16.7947C235.357 12.8307 230.784 9.50832 225.785 6.96479C220.696 4.37529 215.483 2.73304 209.882 1.72737C204.366 0.736929 198.739 0.408542 193.161 0.257863C190.601 0.188582 188.04 0.159378 185.478 0.143533C182.437 0.124893 179.396 0.126446 176.355 0.126446L141.048 0H114.64L79.9568 0.126446C76.91 0.126446 73.8632 0.124893 70.8164 0.143533C68.2496 0.159378 65.684 0.188582 63.1181 0.257863C57.5275 0.408542 51.8878 0.73724 46.3586 1.72893C40.75 2.73428 35.5294 4.37591 30.4336 6.96355C25.4246 9.50738 20.8412 12.8301 16.867 16.7947C12.8934 20.7583 9.56265 25.3296 7.01292 30.3253C4.4169 35.4114 2.77093 40.6218 1.76247 46.2199C0.769548 51.7333 0.44054 57.3568 0.289241 62.932C0.22027 65.4913 0.190445 68.051 0.174911 70.611C0.156271 73.6507 0 77.4264 0 80.4657L0.000932032 114.668L0 141.359L0.157824 176.288C0.157824 179.331 0.156581 182.375 0.174911 185.418C0.190445 187.982 0.22027 190.545 0.289551 193.108C0.44054 198.693 0.770169 204.326 1.76403 209.849C2.77217 215.451 4.41783 220.666 7.01168 225.756C9.56172 230.76 12.8931 235.338 16.867 239.308C20.8409 243.277 25.423 246.604 30.4312 249.151C35.53 251.744 40.7531 253.389 46.3652 254.396C51.8918 255.388 57.5297 255.717 63.1181 255.867C65.684 255.937 68.2499 255.966 70.8167 255.982C73.8635 256 76.91 255.999 79.9568 255.999L114.953 256H141.427L176.355 255.999C179.396 255.999 182.437 256 185.478 255.982C188.04 255.966 190.601 255.937 193.161 255.867C198.741 255.716 204.37 255.387 209.889 254.394C215.486 253.388 220.697 251.744 225.783 249.152C230.782 246.605 235.357 243.278 239.323 239.308C243.289 235.339 246.613 230.761 249.158 225.759C251.749 220.666 253.392 215.449 254.398 209.843C255.389 204.322 255.718 198.69 255.869 193.108C255.938 190.545 255.967 187.982 255.983 185.418C256.002 182.375 256 179.331 256 176.288C256 176.288 255.998 141.975 255.998 141.359V114.64C255.998 114.185 256 79.7288 256 79.7288Z" fill="#5566B1"/><path d="M122.494 51.4321C122.494 48.6035 124.787 46.3105 127.615 46.3105C130.444 46.3105 132.737 48.6035 132.737 51.4321V203.797C132.737 206.625 130.444 208.918 127.615 208.918C124.787 208.918 122.494 206.625 122.494 203.797V51.4321Z" fill="white"/><path d="M56.1719 63.3416C54.1719 61.3415 54.1719 58.0987 56.1719 56.0987C58.172 54.0986 61.4148 54.0986 63.4148 56.0987L199.899 192.582C201.899 194.582 201.899 197.825 199.899 199.825C197.899 201.825 194.656 201.825 192.656 199.825L56.1719 63.3416Z" fill="white"/><path d="M192.655 56.0977C194.655 54.0976 197.898 54.0976 199.898 56.0977C201.898 58.0978 201.898 61.3405 199.898 63.3406L63.4148 199.825C61.4147 201.825 58.172 201.825 56.1719 199.825C54.1718 197.824 54.1718 194.582 56.1719 192.582L192.655 56.0977Z" fill="white"/><path d="M204.182 122.876C207.01 122.876 209.303 125.169 209.303 127.998C209.303 130.826 207.01 133.119 204.182 133.119H51.8168C48.9883 133.119 46.6953 130.826 46.6953 127.998C46.6953 125.169 48.9883 122.876 51.8168 122.876H204.182Z" fill="white"/></svg>
